{
  "accessors": [
    {
      "bufferView": 2,
      "componentType": 5126,
      "count": 65532,
      "max": [
        0.443888783454895,
        1.1907131671905518,
        1.655184030532837
      ],
      "min": [
        -0.5056188702583313,
        -0.41671621799468994,
        0.013532647863030434
      ],
      "type": "VEC3"
    },
    {
      "bufferView": 2,
      "byteOffset": 786384,
      "componentType": 5126,
      "count": 65532,
      "max": [
        0.9999999403953552,
        0.9999731183052063,
        0.9999942779541016
      ],
      "min": [
        -1.0,
        -0.9998757243156433,
        -0.9999827146530151
      ],
      "type": "VEC3"
    },
    {
      "bufferView": 1,
      "componentType": 5126,
      "count": 65532,
      "max": [
        1.0,
        1.0439825057983398
      ],
      "min": [
        0.0,
        0.0
      ],
      "type": "VEC2"
    },
    {
      "bufferView": 0,
      "componentType": 5125,
      "count": 337839,
      "type": "SCALAR"
    },
    {
      "bufferView": 2,
      "byteOffset": 1572768,
      "componentType": 5126,
      "count": 64161,
      "max": [
        0.43154430389404297,
        0.3595390319824219,
        1.655184030532837
      ],
      "min": [
        -0.4819350242614746,
        -0.422746479511261,
        0.00914795696735382
      ],
      "type": "VEC3"
    },
    {
      "bufferView": 2,
      "byteOffset": 2342700,
      "componentType": 5126,
      "count": 64161,
      "max": [
        0.9999189376831055,
        0.9998674988746643,
        0.9999942779541016
      ],
      "min": [
        -0.9999723434448242,
        -0.9999857544898987,
        -0.9999827146530151
      ],
      "type": "VEC3"
    },
    {
      "bufferView": 1,
      "byteOffset": 524256,
      "componentType": 5126,
      "count": 64161,
      "max": [
        0.8750002384185791,
        0.9882556200027466
      ],
      "min": [
        0.0,
        0.0
      ],
      "type": "VEC2"
    },
    {
      "bufferView": 0,
      "byteOffset": 1351356,
      "componentType": 5125,
      "count": 342222,
      "type": "SCALAR"
    },
    {
      "bufferView": 2,
      "byteOffset": 3112632,
      "componentType": 5126,
      "count": 441,
      "max": [
        0.032229576259851456,
        0.053106144070625305,
        0.04812244698405266
      ],
      "min": [
        -0.035108380019664764,
        -0.05526817589998245,
        -0.05167991295456886
      ],
      "type": "VEC3"
    },
    {
      "bufferView": 2,
      "byteOffset": 3117924,
      "componentType": 5126,
      "count": 441,
      "max": [
        0.9998040199279785,
        0.990940272808075,
        0.9992238879203796
      ],
      "min": [
        -0.9964152574539185,
        -0.9866724610328674,
        -0.9911501407623291
      ],
      "type": "VEC3"
    },
    {
      "bufferView": 1,
      "byteOffset": 1037544,
      "componentType": 5126,
      "count": 441,
      "max": [
        0.8750001192092896,
        1.0000001192092896
      ],
      "min": [
        0.1250000149011612,
        0.0
      ],
      "type": "VEC2"
    },
    {
      "bufferView": 0,
      "byteOffset": 2720244,
      "componentType": 5125,
      "count": 2304,
      "type": "SCALAR"
    },
    {
      "bufferView": 2,
      "byteOffset": 3123216,
      "componentType": 5126,
      "count": 441,
      "max": [
        0.0339561365544796,
        0.05380530282855034,
        0.050418250262737274
      ],
      "min": [
        -0.035108380019664764,
        -0.05526817589998245,
        -0.05167991295456886
      ],
      "type": "VEC3"
    },
    {
      "bufferView": 2,
      "byteOffset": 3128508,
      "componentType": 5126,
      "count": 441,
      "max": [
        0.9974235892295837,
        0.9916005730628967,
        0.9929946064949036
      ],
      "min": [
        -0.9964152574539185,
        -0.9866724610328674,
        -0.9911501407623291
      ],
      "type": "VEC3"
    },
    {
      "bufferView": 1,
      "byteOffset": 1041072,
      "componentType": 5126,
      "count": 441,
      "max": [
        0.8750001192092896,
        1.0000001192092896
      ],
      "min": [
        0.1250000149011612,
        0.0
      ],
      "type": "VEC2"
    },
    {
      "bufferView": 0,
      "byteOffset": 2729460,
      "componentType": 5125,
      "count": 2304,
      "type": "SCALAR"
    },
    {
      "bufferView": 2,
      "byteOffset": 3133800,
      "componentType": 5126,
      "count": 70,
      "max": [
        2.009673833847046,
        0.6540448665618896,
        0.0
      ],
      "min": [
        0.009673833847045898,
        -0.6540448665618896,
        -0.0781068205833435
      ],
      "type": "VEC3"
    },
    {
      "bufferView": 2,
      "byteOffset": 3134640,
      "componentType": 5126,
      "count": 70,
      "max": [
        1.0,
        0.9900036454200745,
        0.9998576641082764
      ],
      "min": [
        -0.5427693128585815,
        -0.9900036454200745,
        -0.9998576641082764
      ],
      "type": "VEC3"
    },
    {
      "bufferView": 1,
      "byteOffset": 1044600,
      "componentType": 5126,
      "count": 70,
      "max": [
        1.0,
        1.0
      ],
      "min": [
        0.0,
        0.0
      ],
      "type": "VEC2"
    },
    {
      "bufferView": 0,
      "byteOffset": 2738676,
      "componentType": 5125,
      "count": 96,
      "type": "SCALAR"
    }
  ],
  "asset": {
    "extras": {
      "author": "Fovys3D (https://sketchfab.com/Fovys3D)",
      "license": "CC-BY-4.0 (http://creativecommons.org/licenses/by/4.0/)",
      "source": "https://sketchfab.com/3d-models/alien-8bea019d6ad849c2ba819090b8514e22",
      "title": "Alien"
    },
    "generator": "Sketchfab-16.12.0",
    "version": "2.0"
  },
  "bufferViews": [
    {
      "buffer": 0,
      "byteLength": 2739060,
      "name": "floatBufferViews",
      "target": 34963
    },
    {
      "buffer": 0,
      "byteLength": 1045160,
      "byteOffset": 2739060,
      "byteStride": 8,
      "name": "floatBufferViews",
      "target": 34962
    },
    {
      "buffer": 0,
      "byteLength": 3135480,
      "byteOffset": 3784220,
      "byteStride": 12,
      "name": "floatBufferViews",
      "target": 34962
    }
  ],
  "buffers": [
    {
      "byteLength": 6919700,
      "uri": "a2.bin"
    }
  ],
  "materials": [
    {
      "doubleSided": true,
      "name": "Material.004",
      "pbrMetallicRoughness": {
        "baseColorFactor": [
          0.511041,
          0.564323,
          0.685957,
          1.0
        ],
        "metallicFactor": 0.0,
        "roughnessFactor": 0.8743827944291437
      }
    },
    {
      "doubleSided": true,
      "name": "Material.005",
      "pbrMetallicRoughness": {
        "baseColorFactor": [
          0.0,
          0.0,
          0.0,
          1.0
        ],
        "metallicFactor": 0.0
      }
    },
    {
      "doubleSided": true,
      "emissiveFactor": [
        0.137579,
        0.0,
        0.00115543
      ],
      "name": "Material.006",
      "pbrMetallicRoughness": {
        "baseColorFactor": [
          1.0,
          0.0,
          0.0,
          1.0
        ],
        "metallicFactor": 0.0
      }
    }
  ],
  "meshes": [
    {
      "name": "Cube.009_Material.004_0",
      "primitives": [
        {
          "attributes": {
            "NORMAL": 1,
            "POSITION": 0,
            "TEXCOORD_0": 2
          },
          "indices": 3,
          "material": 0,
          "mode": 4
        }
      ]
    },
    {
      "name": "Cube.009_Material.004_0",
      "primitives": [
        {
          "attributes": {
            "NORMAL": 5,
            "POSITION": 4,
            "TEXCOORD_0": 6
          },
          "indices": 7,
          "material": 0,
          "mode": 4
        }
      ]
    },
    {
      "name": "Cube.001_Material.005_0",
      "primitives": [
        {
          "attributes": {
            "NORMAL": 9,
            "POSITION": 8,
            "TEXCOORD_0": 10
          },
          "indices": 11,
          "material": 1,
          "mode": 4
        }
      ]
    },
    {
      "name": "Cube.026_Material.005_0",
      "primitives": [
        {
          "attributes": {
            "NORMAL": 13,
            "POSITION": 12,
            "TEXCOORD_0": 14
          },
          "indices": 15,
          "material": 1,
          "mode": 4
        }
      ]
    },
    {
      "name": "Plane_Material.006_0",
      "primitives": [
        {
          "attributes": {
            "NORMAL": 17,
            "POSITION": 16,
            "TEXCOORD_0": 18
          },
          "indices": 19,
          "material": 2,
          "mode": 4
        }
      ]
    }
  ],
  "nodes": [
    {
      "children": [
        1
      ],
      "matrix": [
        1.0,
        0.0,
        0.0,
        0.0,
        0.0,
        2.220446049250313e-16,
        -1.0,
        0.0,
        0.0,
        1.0,
        2.220446049250313e-16,
        0.0,
        0.0,
        0.0,
        0.0,
        1.0
      ],
      "name": "Sketchfab_model"
    },
    {
      "children": [
        2
      ],
      "matrix": [
        0.009999999776482582,
        0.0,
        0.0,
        0.0,
        0.0,
        0.0,
        0.009999999776482582,
        0.0,
        0.0,
        -0.009999999776482582,
        0.0,
        0.0,
        0.0,
        0.0,
        0.0,
        1.0
      ],
      "name": "c9d646036a46470ab833782c9d0e4694.fbx"
    },
    {
      "children": [
        3,
        6,
        8,
        10,
        12
      ],
      "name": "RootNode"
    },
    {
      "children": [
        4,
        5
      ],
      "matrix": [
        275.4929504394531,
        0.0,
        0.0,
        0.0,
        -0.0,
        -4.4883498653255844e-05,
        -275.4929504394495,
        0.0,
        0.0,
        275.4929504394495,
        -4.4883498653255844e-05,
        0.0,
        -3.727325916290283,
        2.8143630027770996,
        -32.981075286865234,
        1.0
      ],
      "name": "Cube.009"
    },
    {
      "mesh": 0,
      "name": "Cube.009_Material.004_0"
    },
    {
      "mesh": 1,
      "name": "Cube.009_Material.004_0"
    },
    {
      "children": [
        7
      ],
      "matrix": [
        189.50131353512486,
        13.215311872511313,
        -199.52687398545976,
        0.0,
        -190.35943025975055,
        96.09288254321623,
        -174.42996009159035,
        0.0,
        61.228310870432075,
        257.8524654309112,
        75.23019723319649,
        0.0,
        20.08435821533203,
        421.4626770019531,
        56.65056228637695,
        1.0
      ],
      "name": "Cube.001"
    },
    {
      "mesh": 2,
      "name": "Cube.001_Material.005_0"
    },
    {
      "children": [
        9
      ],
      "matrix": [
        -177.21537484972868,
        -24.666910967481904,
        209.48178957137884,
        -0.0,
        -208.66113473730937,
        60.51574317112382,
        -169.39527217480477,
        -0.0,
        30.848299412160966,
        267.6299434334022,
        57.6107209862962,
        -0.0,
        1.4794504642486572,
        417.20648193359375,
        73.0078125,
        1.0
      ],
      "name": "Cube.026"
    },
    {
      "mesh": 3,
      "name": "Cube.026_Material.005_0"
    },
    {
      "children": [
        11
      ],
      "matrix": [
        48.02101458704849,
        57.876845966854894,
        -65.91094642742911,
        0.0,
        -57.870035715899704,
        77.37256948564725,
        25.778759811697345,
        0.0,
        65.91692593159188,
        25.76346622870536,
        70.64844431133207,
        0.0,
        -183.02630615234375,
        236.0464630126953,
        206.18829345703125,
        1.0
      ],
      "name": "Plane"
    },
    {
      "mesh": 4,
      "name": "Plane_Material.006_0"
    },
    {
      "children": [
        13
      ],
      "matrix": [
        -70.64963401066554,
        -0.10985888529220497,
        -70.77157352571362,
        0.0,
        -0.07149265599520006,
        99.99993928091878,
        -0.08386067431469868,
        0.0,
        70.77162808171313,
        -0.00865078253908461,
        -70.64967504403425,
        0.0,
        909.7529296875,
        251.25152587890625,
        893.295166015625,
        1.0
      ],
      "name": "Camera"
    },
    {
      "name": "Object_13"
    }
  ],
  "scene": 0,
  "scenes": [
    {
      "name": "Sketchfab_Scene",
      "nodes": [
        0
      ]
    }
  ]
}
